<svg xmlns="http://www.w3.org/2000/svg" xmlns:xlink="http://www.w3.org/1999/xlink" width="450" height="450" viewBox="0 0 450 450"><defs><linearGradient id="a" x1="117.45" y1="508.4" x2="260.67" y2="131" gradientUnits="userSpaceOnUse"><stop offset="0" stop-color="#3fc1ce"/><stop offset="1" stop-color="#081e2c"/></linearGradient></defs><rect width="450" height="450" rx="86.29" fill="url(#a)"/><path d="M332.58,281.94c-5.53,1.26-20.08,2-20.08,2l-1.84,5.76a84,84,0,0,1,12.55-.08s1.73-.19,1.92,2a32.9,32.9,0,0,1-.15,4.15s-.11,1.3-2,1.61-15.66.84-15.66.84l-2.23,7.49s-.8,1.73,1,1.23,16.05-3.15,17.93-2.77,4.22,3.15,3.57,5.61c-.77,3-15.05,12.13-23.77,11.48,0,0-4.56.31-8.44-5.88-3.61-5.87,1.38-17,1.38-17s-2.26-5.22-.61-7c0,0,1-.88,3.84-1.11l3.49-7.26s-4,.27-6.37-2.65-2.38-4.07-.69-4.83,18.42-3.92,29.86-3.54c0,0,4-.38,7.41,6.53C333.73,278.48,335.42,281.28,332.58,281.94Zm-43,27.87c-1.46,3.45-5.34,7.14-10.14,4.83s-12.32-17.77-12.32-17.77-2.88-5.76-3.42-5.64c0,0-.61-1.12-1,5.18s.08,18.54-2.41,20.46a4.46,4.46,0,0,1-6.76-1.11c-1.34-2.23-1.92-7.53-1.19-16.82.88-9.29,3-19.19,5.8-22.3s5-.85,5.83,0c0,0,3.69,3.34,9.79,13.17l1.08,1.8s5.52,9.29,6.1,9.25c0,0,.46.43.84.12.58-.16.35-3.15.35-3.15s-1.15-10.1-6.18-27.22a7.87,7.87,0,0,1-.23-4.14c.5-2,2.53-1.08,2.53-1.08s7.83,3.92,11.6,16.66S291,306.35,289.55,309.81Zm-38.47-32.75c-.65,1.31-1,3.19-4.34,3.69,0,0-31.59,2.15-33.09,4.37,0,0-1.11,1.31.62,1.69s8.86,1.31,12.32,1.5c3.68,0,16.12.15,20.58,5.72,0,0,2.64,2.65,2.53,8.64s-1.19,8.29-3.57,10.51-23.92,11.67-37.74-3.07c0,0-6.37-7.1,2.19-12.47,0,0,6.18-3.73,21.88.65,0,0,4.76,1.73,4.53,3.45s-3.91,3.81-9.21,3.69a17.36,17.36,0,0,1-8.18-2.23c.69.27-5.53-3-7.45-.76-1.91,2-1.45,3.3.43,4.56,4.8,2.73,23.34,1.77,28.87-4.37,0,0,2.18-2.5-1.16-4.53s-12.89-3.07-16.62-3.27c-3.57-.19-16.85,0-18.77-3.49,0,0-1.92-2.38.19-9.14,2.23-7.06,17.7-9.78,24.38-10.4,0,0,18.39-.65,21.76,3.11A2.8,2.8,0,0,1,251.08,277.06Zm-52.21,41.42c-2.22,1.65-7,.92-8.29-.92-1.34-1.65-1.8-8.21-1.54-18.5s.5-23.3,2.73-25.34,3.84-.27,4.76,1.15a10.71,10.71,0,0,1,2.46,6.18c.23,3.27,1,20.39,1,20.39S201,316.87,198.87,318.48Zm4.8-55.2c-6.49,2.15-10.94,1.42-14.7-.19-1.65,2.88-2.61,3.76-3.88,4-1.84.19-3.49-2.76-3.8-3.72-.31-.73-1.19-2-.12-4.88a11.19,11.19,0,0,1-3.34-10.75c.93-3.45,7.15-16.58,26.07-18.12,0,0,9.25-.69,10.83,4.26H215s9,0,8.79,8S213.81,259.86,203.67,263.28ZM186,245.5c-1.92,3.08-2,4.92-1.11,6.19a45.63,45.63,0,0,1,12-12.6A13.73,13.73,0,0,0,186,245.5Zm26.14-5.14c-6,.88-15.16,8.87-19.54,15.39,6.72,1.23,18.58.77,23.84-9.94C216.42,245.81,219,239.17,212.15,240.36ZM373.7,302.21c-3.57,6.21-13.59,19.19-26.95,16.16a138.33,138.33,0,0,0-10.21,37.7s-.47,3.14-3.08,2c-2.57-.92-6.87-5.22-7.71-11.17-.92-7.83,2.57-21.08,9.67-36.24-2.07-3.38-3.49-8.22-2.26-15.09,0,0,1.8-12.74,14.59-24.26,0,0,1.53-1.34,2.41-.92s.54,4.57-.27,6.56-6.52,11.9-6.52,11.9-3.57,6.68-2.57,11.94c6.71-10.32,22-31.17,31.48-24.6,3.18,2.26,4.64,7.21,4.64,12.55A29.27,29.27,0,0,1,373.7,302.21Zm-2.77-16.36s-.54-4.11-4.53.42A98,98,0,0,0,351.7,307a24.15,24.15,0,0,0,11.86-4.92C366.06,299.83,371.85,293.84,370.93,285.85Zm-186.38,5.22c-.73,9.29-4.3,24.92-29.6,32.63-16.69,5-32.47,2.61-41.07.43-.19,3.41-.58,4.87-1.11,5.45-.73.73-6.19,3.87-9.18-.58-1.34-2.11-2-5.95-2.42-9.37-19.35-8.9-28.25-21.72-28.6-22.3a7.78,7.78,0,0,1-.42-10.67c4.15-5.11,17.7-10.21,29.9-12.29.43-10.44,1.66-18.31,3.11-21.92,1.77-4.18,4-.42,5.92,2.42,1.61,2.11,2.57,11.21,2.64,18.47,8-.39,12.71.19,21.62,1.8,11.59,2.11,19.35,8,18.66,14.74-.5,6.61-6.57,9.33-8.87,9.52s-6.18-1.53-6.18-1.53c-2.58-1.23-.2-2.31,2.91-3.65,3.38-1.65,2.61-3.34,2.61-3.34-1.26-3.68-16.31-6.26-31.28-6.26-.08,8.26.34,22,.53,29.95A86.36,86.36,0,0,0,132,316.18s38.23-1.08,39.38-25.49-38.12-47.91-67.18-55.36c-29-7.6-45.45-2.3-46.87-1.57s-.12,1-.12,1a27.28,27.28,0,0,1,4.3,1.15c2.88.92.66,2.42.66,2.42-5,1.57-10.52.57-11.6-1.69s.73-4.3,2.81-7.22,4.33-3,4.33-3c35.9-12.43,79.62,10.06,79.62,10.06C178.33,257.29,185.32,281.63,184.55,291.07ZM76.22,289.81c-4.07,2-1.27,4.87-1.27,4.87a64.88,64.88,0,0,0,26,16.55c1-14.17.88-19.16,1-26.3C88,285.89,79.9,288.12,76.22,289.81Z" transform="translate(-25 -25)" fill="#fff"/><path d="M449.71,286.89V292a2,2,0,0,1-2,2H423.56c0,1.27,0,2.38,0,3.42a186.64,186.64,0,0,1-1,20.46,2,2,0,0,1-2,1.8h-5.22A1.89,1.89,0,0,1,414,319a1.86,1.86,0,0,1-.46-1.46,180.42,180.42,0,0,0,1.08-20.19c0-1.08,0-2.19,0-3.42H390.7a2,2,0,0,1-2-2v-5.07a2,2,0,0,1,2-2h23.54a177.44,177.44,0,0,0-3.11-24.26,1.73,1.73,0,0,1,.34-1.38,1.62,1.62,0,0,1,1.27-.62h5.64a1.87,1.87,0,0,1,1.81,1.5,195.6,195.6,0,0,1,3.07,24.76h24.45A2,2,0,0,1,449.71,286.89Z" transform="translate(-25 -25)" fill="#fff"/><path d="M127,220h0m-.27,0-.34,0a1.31,1.31,0,0,0,.34,0h0Zm0,0-.34,0a1.31,1.31,0,0,0,.34,0h0Z" transform="translate(-25 -25)" fill="#fff"/><path d="M416.85,246.69a168.5,168.5,0,0,0-296.33-29.94,2,2,0,0,0-.23,1.73,1.87,1.87,0,0,0,1.23,1.23l4.37,1.49a2.78,2.78,0,0,0,.77.12,2.52,2.52,0,0,0,2-1.08,159.55,159.55,0,0,1,132-69.94,159.76,159.76,0,0,1,147.07,97.47,2.3,2.3,0,0,0,2.11,1.42h5.22a1.77,1.77,0,0,0,1.5-.81A1.69,1.69,0,0,0,416.85,246.69ZM126.66,220a1,1,0,0,1-.34-.07,1,1,0,0,0,.34.07h0ZM408.82,248.5a1.51,1.51,0,0,0,.35.19C409.05,248.61,408.94,248.58,408.82,248.5Z" transform="translate(-25 -25)" fill="#fff"/></svg>