<svg xmlns="http://www.w3.org/2000/svg" viewBox="0 0 400 400"><path fill="none" stroke="#8e8e8d" stroke-width="2" d="M215.46 280.43q13.84-13.81 27.6-27.71a1 1 0 0 0 0-1.41l-42.23-42.62a1.01 1-45.2 0 1 0-1.41l42.24-42.56a1 1 0 0 0 0-1.41l-42.37-42.69a1 1 0 0 0-1.42 0l-42.26 42.58a1 1 0 0 1-1.42 0l-42.24-42.55a1 1 0 0 0-1.42 0L69.65 163.3a1 1 0 0 0 0 1.41l42.32 42.69a1 1 0 0 0 1.42 0l42.21-42.62a1 1 0 0 1 1.42 0l42.18 42.5a1 1 0 0 1 0 1.41l-42.26 42.6a1 1 0 0 0 0 1.41l42.31 42.68a1 1 0 0 0 1.4.02q3.71-3.5 7.14-7.07 6.37-6.61 7.67-7.9m72.064-160.153a.27.27 0 0 0-.382 0l-43.515 43.515a.27.27 0 0 0 0 .382l43.53 43.53a.27.27 0 0 0 .381 0l43.515-43.516a.27.27 0 0 0 0-.382l-43.53-43.53" vector-effect="non-scaling-stroke"/><path fill="#1c1c1b" d="M0 0h400v400H0V0Zm215.46 280.43q13.84-13.81 27.6-27.71a1 1 0 0 0 0-1.41l-42.23-42.62a1.01 1-45.2 0 1 0-1.41l42.24-42.56a1 1 0 0 0 0-1.41l-42.37-42.69a1 1 0 0 0-1.42 0l-42.26 42.58a1 1 0 0 1-1.42 0l-42.24-42.55a1 1 0 0 0-1.42 0L69.65 163.3a1 1 0 0 0 0 1.41l42.32 42.69a1 1 0 0 0 1.42 0l42.21-42.62a1 1 0 0 1 1.42 0l42.18 42.5a1 1 0 0 1 0 1.41l-42.26 42.6a1 1 0 0 0 0 1.41l42.31 42.68a1 1 0 0 0 1.4.02q3.71-3.5 7.14-7.07 6.37-6.61 7.67-7.9Zm72.064-160.153a.27.27 0 0 0-.382 0l-43.515 43.515a.27.27 0 0 0 0 .382l43.53 43.53a.27.27 0 0 0 .381 0l43.515-43.516a.27.27 0 0 0 0-.382l-43.53-43.53Z"/><path fill="#fff" d="M207.79 288.33q-3.43 3.57-7.14 7.07a1 1 0 0 1-1.4-.02l-42.31-42.68a1 1 0 0 1 0-1.41l42.26-42.6a1 1 0 0 0 0-1.41l-42.18-42.5a1 1 0 0 0-1.42 0l-42.21 42.62a1 1 0 0 1-1.42 0l-42.32-42.69a1 1 0 0 1 0-1.41l42.29-42.65a1 1 0 0 1 1.42 0l42.24 42.55a1 1 0 0 0 1.42 0l42.26-42.58a1 1 0 0 1 1.42 0l42.37 42.69a1 1 0 0 1 0 1.41l-42.24 42.56a1.01 1-45.2 0 0 0 1.41l42.23 42.62a1 1 0 0 1 0 1.41q-13.76 13.9-27.6 27.71-1.3 1.29-7.67 7.9Z"/><rect width="62.08" height="62.1" x="-31.04" y="-31.05" fill="#fff" rx=".27" transform="rotate(-45 341.623 -264.855)"/></svg>